<svg xmlns="http://www.w3.org/2000/svg" xmlns:xlink="http://www.w3.org/1999/xlink" stroke-miterlimit="10" stroke-linecap="square" stroke="none" fill="none" viewBox="20.517435320584926 45.36 926.5241844769404 293.76000000000005" version="1.1" style="max-height: 500px" width="926.5241844769404" height="293.76000000000005"><clipPath id="g21c12036477_0_30.0"><path clip-rule="nonzero" d="m0 0l960.0 0l0 540.0l-960.0 0l0 -540.0z"/></clipPath><g clip-path="url(#g21c12036477_0_30.0)"><path fill-rule="evenodd" d="m0 0l960.0 0l0 540.0l-960.0 0z" fill="#ffffff"/><path fill-rule="evenodd" d="m0 113.08399l960.0 0l0 242.3937l-960.0 0z" fill-opacity="0.0" fill="#000000"/><path fill-rule="nonzero" d="m42.453735 263.396l0 -131.75002l24.828125 0l0 131.75002l-24.828125 0zm51.703506 0l0 -93.843765l22.625 0l0 11.78125l1.46875 0q2.953125 -4.421875 7.171875 -7.734375q4.234375 -3.3125 9.65625 -5.140625q5.4375 -1.84375 11.703125 -1.84375q10.296875 0 17.5625 4.78125q7.265625 4.78125 10.21875 11.78125q4.234375 -6.8125 12.046875 -11.6875q7.828125 -4.875 19.40625 -4.875q16.390625 0 24.578125 9.9375q8.1875 9.9375 8.1875 26.484375l0 60.35939l-23.921875 0l0 -55.937515q0 -9.015625 -4.234375 -13.703125q-4.234375 -4.703125 -11.40625 -4.703125q-6.265625 0 -10.953125 3.40625q-4.6875 3.40625 -7.171875 9.484375q-2.484375 6.0625 -2.484375 14.171875l0 47.281265l-24.109375 0l0 -55.937515q0 -9.015625 -4.328125 -13.703125q-4.3125 -4.703125 -12.234375 -4.703125q-5.875 0 -10.390625 3.40625q-4.515625 3.40625 -6.90625 9.484375q-2.390625 6.0625 -2.390625 14.171875l0 47.281265l-24.09375 0zm209.75438 42.6875q-12.703125 0 -22.0 -3.953125q-9.28125 -3.953125 -15.171875 -10.21875q-5.890625 -6.25 -8.28125 -13.0625l22.640625 -9.203125q2.9375 6.8125 8.921875 10.953125q5.984375 4.140625 13.890625 4.140625q11.21875 0 18.03125 -6.90625q6.8125 -6.890625 6.8125 -19.953125l0 -7.3593903l-1.46875 0q-4.421875 6.2500153 -11.609375 9.562515q-7.171875 3.3125 -16.359375 3.3125q-11.40625 0 -21.4375 -5.890625q-10.03125 -5.8906403 -16.203125 -16.73439q-6.1562347 -10.859375 -6.1562347 -25.765625q0 -15.09375 6.1562347 -25.859375q6.171875 -10.765625 16.203125 -16.640625q10.03125 -5.890625 21.4375 -5.890625q9.1875 0 16.359375 3.21875q7.1875 3.21875 11.609375 9.65625l1.46875 0l0 -9.9375l23.1875 0l0 87.406265q0 15.078125 -5.890625 26.125q-5.890625 11.046875 -16.65625 17.015625q-10.765625 5.984375 -25.484375 5.984375zm0.375 -64.57814q6.4375 0 12.046875 -3.03125q5.609375 -3.046875 9.015625 -9.015625q3.40625 -5.984375 3.40625 -14.453125q0 -8.828125 -3.40625 -14.71875q-3.40625 -5.890625 -9.015625 -8.828125q-5.609375 -2.953125 -12.046875 -2.953125q-6.453125 0 -12.15625 2.953125q-5.703125 2.9375 -9.109375 8.828125q-3.390625 5.890625 -3.390625 14.71875q0 8.640625 3.390625 14.625q3.40625 5.984375 9.109375 8.9375q5.703125 2.9375 12.15625 2.9375zm114.25354 24.82814q-11.21875 0 -21.0625 -4.21875q-9.84375 -4.234375 -17.109375 -12.60939q-7.265625 -8.375 -10.953125 -20.515625l23.375 -9.203125q2.5625 9.75 9.0 16.375q6.453125 6.625 16.9375 6.625q5.15625 0 9.75 -1.75q4.609375 -1.75 7.453125 -5.234375q2.859375 -3.5 2.859375 -8.65625q0 -4.96875 -2.40625 -8.546875q-2.390625 -3.59375 -8.0 -6.8125q-5.609375 -3.21875 -15.171875 -6.71875l-8.09375 -2.9375q-5.34375 -2.03125 -10.78125 -5.0625q-5.421875 -3.046875 -9.9375 -7.546875q-4.5 -4.515625 -7.265625 -10.390625q-2.75 -5.890625 -2.75 -13.4375q0 -10.3125 5.328125 -18.671875q5.34375 -8.375 14.90625 -13.34375q9.578125 -4.96875 22.265625 -4.96875q13.25 0 21.890625 4.515625q8.65625 4.5 13.53125 10.9375q4.875 6.4375 6.90625 12.515625l-21.90625 9.203125q-1.09375 -3.6875 -3.671875 -7.0q-2.578125 -3.3125 -6.625 -5.328125q-4.046875 -2.03125 -9.75 -2.03125q-5.34375 0 -9.578125 1.75q-4.21875 1.75 -6.625 4.796875q-2.390625 3.03125 -2.390625 7.078125q0 5.875 5.0625 10.109375q5.0625 4.234375 16.28125 7.921875l8.28125 2.75q7.0 2.390625 13.34375 5.625q6.34375 3.21875 11.3125 8.0q4.96875 4.78125 7.8125 11.40625q2.859375 6.625 2.859375 15.828125q0 10.109375 -4.046875 17.65625q-4.046875 7.546875 -10.671875 12.32814q-6.625 4.78125 -14.625 7.171875q-8.0 2.390625 -15.734375 2.390625zm54.104126 -96.781265l63.46875 0l0 20.609375l-63.46875 0l0 -20.609375zm16.375 63.859375l0 -90.359375l24.09375 0l0 85.9375q0 6.4375 2.765625 9.84375q2.765625 3.40625 9.203125 3.40625q3.671875 0 6.15625 -1.109375q2.484375 -1.109375 5.625 -2.9375l0 23.54689q-3.875 1.46875 -8.015625 2.296875q-4.140625 0.828125 -8.734375 0.828125q-14.53125 0 -22.8125 -8.359375q-8.28125 -8.375015 -8.28125 -23.093765zm101.00574 32.92189q-17.28125 0 -25.9375 -10.67189q-8.640625 -10.671875 -8.640625 -29.0625l0 -57.046875l24.09375 0l0 54.09375q0 9.578125 4.6875 15.015625q4.703125 5.421875 12.0625 5.421875q7.171875 0 12.140625 -3.59375q4.96875 -3.59375 7.640625 -9.65625q2.671875 -6.078125 2.671875 -13.4375l0 -47.84375l24.09375 0l0 93.843765l-22.625 0l0 -11.781265l-1.46875 0q-2.765625 4.4218903 -7.1875 7.7343903q-4.40625 3.3125 -9.84375 5.140625q-5.421875 1.84375 -11.6875 1.84375zm115.749146 0q-12.890625 0 -23.203125 -6.34375q-10.296875 -6.3437653 -16.28125 -17.562515q-5.96875 -11.234375 -5.96875 -25.953125q0 -14.71875 5.96875 -25.9375q5.984375 -11.234375 16.28125 -17.578125q10.3125 -6.34375 23.203125 -6.34375q6.796875 0 12.3125 2.03125q5.53125 2.015625 9.578125 5.328125q4.046875 3.3125 6.25 6.984375l1.484375 0l-1.484375 -13.25l0 -36.0625l23.921875 0l0 131.75002l-22.4375 0l0 -11.218765l-1.484375 0q-2.203125 3.671875 -6.25 6.8906403q-4.046875 3.21875 -9.578125 5.234375q-5.515625 2.03125 -12.3125 2.03125zm4.046875 -22.250015q6.796875 0 12.59375 -3.5q5.796875 -3.5 9.390625 -9.65625q3.59375 -6.171875 3.59375 -14.453125q0 -8.28125 -3.59375 -14.4375q-3.59375 -6.171875 -9.390625 -9.578125q-5.796875 -3.40625 -12.59375 -3.40625q-6.625 0 -12.421875 3.40625q-5.796875 3.40625 -9.390625 9.484375q-3.578125 6.0625 -3.578125 14.53125q0 8.28125 3.578125 14.546875q3.59375 6.25 9.390625 9.65625q5.796875 3.40625 12.421875 3.40625zm73.229004 19.312515l0 -93.843765l24.109375 0l0 93.843765l-24.109375 0zm12.140625 -104.14064q-6.4375 0 -11.046875 -4.59375q-4.59375 -4.609375 -4.59375 -11.046875q0 -6.4375 4.59375 -10.9375q4.609375 -4.515625 11.046875 -4.515625q6.4375 0 10.9375 4.515625q4.515625 4.5 4.515625 10.9375q0 6.4375 -4.515625 11.046875q-4.5 4.59375 -10.9375 4.59375zm80.96124 107.07814q-14.71875 0 -26.046875 -6.53125q-11.3125 -6.5312653 -17.65625 -17.843765q-6.34375 -11.3125 -6.34375 -25.484375q0 -14.171875 6.34375 -25.484375q6.34375 -11.3125 17.65625 -17.84375q11.328125 -6.53125 26.046875 -6.53125q14.71875 0 25.9375 6.625q11.234375 6.625 17.578125 17.84375q6.34375 11.21875 6.34375 25.390625q0 14.171875 -6.34375 25.484375q-6.34375 11.3125 -17.578125 17.843765q-11.21875 6.53125 -25.9375 6.53125zm0 -22.437515q6.984375 0 12.78125 -3.21875q5.796875 -3.21875 9.390625 -9.375q3.59375 -6.171875 3.59375 -14.828125q0 -8.640625 -3.59375 -14.71875q-3.59375 -6.078125 -9.390625 -9.390625q-5.796875 -3.3125 -12.59375 -3.3125q-7.0 0 -12.984375 3.3125q-5.96875 3.3125 -9.5625 9.390625q-3.578125 6.078125 -3.578125 14.71875q0 8.65625 3.578125 14.828125q3.59375 6.15625 9.5625 9.375q5.984375 3.21875 12.796875 3.21875z" fill="#202124"/><path fill-rule="evenodd" d="m26.73491 48.157482l652.6299 0l0 116.34645l-652.6299 0z" fill-opacity="0.0" fill="#000000"/><path fill-rule="nonzero" d="m54.938034 119.081856q-1.28125 0 -1.28125 0q0 0 -0.28125 -1.046875l-15.359375 -54.95312q-0.515625 -1.765625 -0.515625 -1.765625q0 0 1.875 0q1.15625 0 1.15625 0q0 0 0.25 0.921875l13.4375 48.593746l0.796875 2.96875l0 0l0.921875 -2.96875l14.359375 -48.39062q0.359375 -1.25 0.359375 -1.25q0 0 1.515625 0q1.5625 0 1.5625 0q0 0 0.359375 1.25l14.28125 48.39062l0.875 2.96875l0 0l0.84375 -2.96875l13.40625 -48.593746q0.234375 -0.921875 0.234375 -0.921875q0 0 1.15625 0q1.921875 0 1.921875 0q0 0 -0.5625 1.765625l-15.5625 54.95312q-0.265625 1.046875 -0.265625 1.046875q0 0 -1.25 0q-1.234375 0 -1.234375 0q0 0 -0.328125 -1.046875l-14.828125 -50.59375l-0.640625 -2.0l0 0l-0.609375 1.953125l-15.03125 50.640625q-0.28125 1.046875 -0.28125 1.046875q0 0 -1.28125 0zm71.62993 0.078125q-8.71875 0 -14.65625 -6.0q-5.9375 -6.0 -5.9375 -15.203125l0 0q0 -9.3125 5.953125 -15.3125q5.96875 -6.0 14.40625 -6.0q8.515625 0 13.859375 5.40625q5.34375 5.390625 5.375 13.859375l0 0.09375q0 1.640625 0 1.640625q0 0 -1.671875 0l-36.328125 0l0 -2.640625l34.890625 0l0 0q-0.078125 -6.84375 -4.5625 -11.203125q-4.484375 -4.359375 -11.5625 -4.359375q-7.234375 0 -12.328125 5.234375q-5.078125 5.234375 -5.078125 13.28125l0 0q0 8.0 5.1875 13.1875q5.1875 5.171875 12.421875 5.171875q3.5625 0 6.28125 -1.015625q2.71875 -1.015625 4.796875 -2.78125q2.078125 -1.765625 3.328125 -3.78125q1.265625 -2.015625 1.265625 -2.015625q0 0 1.3125 0.578125q1.328125 0.578125 1.328125 0.578125q0 0 -1.28125 2.203125q-1.265625 2.203125 -3.859375 4.4375q-2.578125 2.234375 -5.765625 3.4375q-3.171875 1.203125 -7.375 1.203125zm27.562454 -0.5625q-1.46875 0 -1.46875 0q0 0 0 -1.3125l0 -54.64062q0 -1.328125 0 -1.328125q0 0 1.46875 0q1.484375 0 1.484375 0q0 0 0 1.328125l0 54.64062q0 1.3125 0 1.3125q0 0 -1.484375 0zm29.289993 0.5625q-8.8125 0 -14.609375 -6.015625q-5.796875 -6.03125 -5.796875 -15.265625l0 0q0 -9.203125 5.84375 -15.21875q5.84375 -6.015625 14.59375 -6.015625q4.25 0 7.578125 1.34375q3.34375 1.328125 5.6875 3.546875q2.34375 2.21875 3.375 4.359375q1.046875 2.140625 1.046875 2.140625q0 0 -1.40625 0.609375q-1.390625 0.59375 -1.390625 0.59375q0 0 -0.875 -1.75q-0.859375 -1.765625 -2.8125 -3.703125q-1.953125 -1.953125 -4.765625 -3.171875q-2.796875 -1.21875 -6.390625 -1.21875q-7.40625 0 -12.421875 5.25q-5.015625 5.234375 -5.015625 13.234375l0 0q0 8.03125 5.03125 13.265625q5.046875 5.21875 12.40625 5.21875q3.46875 0 6.09375 -1.140625q2.625 -1.140625 4.734375 -3.203125q2.125 -2.0625 3.125 -4.0q1.0 -1.9375 1.0 -1.9375q0 0 1.390625 0.609375q1.40625 0.59375 1.40625 0.59375q0 0 -1.046875 2.15625q-1.03125 2.15625 -3.46875 4.5q-2.4375 2.34375 -5.640625 3.78125q-3.203125 1.4375 -7.671875 1.4375zm42.94745 0q-8.828125 0 -14.71875 -6.140625q-5.875 -6.140625 -5.875 -15.140625l0 0q0 -8.921875 5.875 -15.0625q5.890625 -6.140625 14.71875 -6.140625q8.84375 0 14.765625 6.140625q5.921875 6.140625 5.921875 15.0625l0 0q0 9.0 -5.921875 15.140625q-5.921875 6.140625 -14.765625 6.140625zm0 -2.875q7.484375 0 12.5625 -5.21875q5.078125 -5.234375 5.078125 -13.1875l0 0q0 -7.875 -5.078125 -13.09375q-5.078125 -5.234375 -12.5625 -5.234375q-7.390625 0 -12.46875 5.234375q-5.078125 5.21875 -5.078125 13.09375l0 0q0 7.953125 5.078125 13.1875q5.078125 5.21875 12.46875 5.21875zm29.562454 2.3125q-1.46875 0 -1.46875 0q0 0 0 -1.3125l0 -38.765625q0 -1.328125 0 -1.328125q0 0 1.4375 0q1.4374847 0 1.4374847 0q0 0 0 1.328125l0 8.921875l0 0q1.3125 -4.84375 5.3125 -7.8125q4.0 -2.984375 9.171875 -2.984375q5.4375 0 9.09375 2.875q3.65625 2.875 4.140625 8.390625q1.671875 -5.359375 5.8125 -8.3125q4.140625 -2.953125 9.1875 -2.953125q6.671875 0 10.265625 4.0625q3.609375 4.046875 3.609375 10.765625l0 25.8125q0 1.3125 0 1.3125q0 0 -1.4375 0q-1.484375 0 -1.484375 0q0 0 0 -1.3125l0 -25.09375q0 -5.90625 -2.921875 -9.3125q-2.90625 -3.40625 -8.546875 -3.40625q-5.203125 0 -9.328125 3.6875q-4.109375 3.671875 -4.5625 10.0l0 24.125q0 1.3125 0 1.3125q0 0 -1.4375 0q-1.4375 0 -1.4375 0q0 0 0 -1.3125l0 -25.0q0 -6.40625 -3.078125 -9.609375q-3.078125 -3.203125 -8.515625 -3.203125q-5.484375 0 -9.625 4.046875q-4.140625 4.03125 -4.140625 10.875l0 22.890625q0 1.3125 0 1.3125q0 0 -1.4843597 0zm85.23744 0.5625q-8.71875 0 -14.65625 -6.0q-5.9375 -6.0 -5.9375 -15.203125l0 0q0 -9.3125 5.953125 -15.3125q5.96875 -6.0 14.40625 -6.0q8.515625 0 13.859375 5.40625q5.34375 5.390625 5.375 13.859375l0 0.09375q0 1.640625 0 1.640625q0 0 -1.671875 0l-36.328125 0l0 -2.640625l34.890625 0l0 0q-0.078125 -6.84375 -4.5625 -11.203125q-4.484375 -4.359375 -11.5625 -4.359375q-7.234375 0 -12.328125 5.234375q-5.078125 5.234375 -5.078125 13.28125l0 0q0 8.0 5.1875 13.1875q5.1875 5.171875 12.421875 5.171875q3.5625 0 6.28125 -1.015625q2.71875 -1.015625 4.796875 -2.78125q2.078125 -1.765625 3.328125 -3.78125q1.265625 -2.015625 1.265625 -2.015625q0 0 1.3125 0.578125q1.328125 0.578125 1.328125 0.578125q0 0 -1.28125 2.203125q-1.265625 2.203125 -3.859375 4.4375q-2.578125 2.234375 -5.765625 3.4375q-3.171875 1.203125 -7.375 1.203125zm55.53119 0q-4.0 0 -6.53125 -2.34375q-2.515625 -2.34375 -2.515625 -7.625l0 -41.59375q0 -1.3125 0 -1.3125q0 0 1.4375 0q1.4375 0 1.4375 0q0 0 0 1.3125l0 41.5625q0 3.796875 1.71875 5.578125q1.734375 1.78125 4.84375 1.78125q1.28125 0 2.359375 -0.28125q1.078125 -0.28125 1.953125 -0.640625q0.890625 -0.359375 0.890625 -0.359375q0 0 0.015625 1.28125q0.03125 1.28125 0.03125 1.28125q0 0 -0.921875 0.40625q-0.921875 0.390625 -2.1875 0.671875q-1.25 0.28125 -2.53125 0.28125zm-15.28125 -39.4375q-1.125 0 -1.125 0q0 0 0 -1.28125q0 -1.25 0 -1.25q0 0 1.125 0l19.515625 0q1.125 0 1.125 0q0 0 0 1.25q0 1.28125 0 1.28125q0 0 -1.125 0l-19.515625 0zm44.94998 39.4375q-8.828125 0 -14.71875 -6.140625q-5.875 -6.140625 -5.875 -15.140625l0 0q0 -8.921875 5.875 -15.0625q5.890625 -6.140625 14.71875 -6.140625q8.84375 0 14.765625 6.140625q5.921875 6.140625 5.921875 15.0625l0 0q0 9.0 -5.921875 15.140625q-5.921875 6.140625 -14.765625 6.140625zm0 -2.875q7.484375 0 12.5625 -5.21875q5.078125 -5.234375 5.078125 -13.1875l0 0q0 -7.875 -5.078125 -13.09375q-5.078125 -5.234375 -12.5625 -5.234375q-7.390625 0 -12.46875 5.234375q-5.078125 5.21875 -5.078125 13.09375l0 0q0 7.953125 5.078125 13.1875q5.078125 5.21875 12.46875 5.21875z" fill="#202124"/><path fill-rule="evenodd" d="m722.1207 288.48163l195.86865 0l0 34.43936l-195.86865 0z" fill-opacity="0.0" fill="#000000"/></g></svg>
